<svg xmlns="http://www.w3.org/2000/svg" width="498" height="547" viewBox="0 0 498 547" fill="none">
<path fill-rule="evenodd" clip-rule="evenodd" d="M131.937 61.2673C106.337 75.1994 81.494 90.478 57.5116 107.039L57.0115 106.289C58.5081 105.263 60.0066 104.241 61.5053 103.218L61.5663 103.177L61.5774 103.169C65.0079 100.829 68.4387 98.4886 71.8469 96.1098C86.4973 85.8643 101.887 76.8085 117.276 67.7534L117.277 67.7528L118.958 66.7637C130.755 59.8882 143.336 54.4575 156.429 50.589C168.715 46.888 180.477 41.8293 192.24 36.7698L192.24 36.7697L192.241 36.7693L192.245 36.7676L192.249 36.7659L192.253 36.7642L192.257 36.7624L192.261 36.7607L192.265 36.759L192.27 36.7572L192.274 36.7555L192.278 36.7538L192.282 36.752L192.286 36.7503L192.29 36.7486L192.294 36.7469L192.298 36.7451L192.302 36.7434L192.306 36.7418C195.455 35.3873 198.604 34.0328 201.764 32.7047C230.541 20.6062 259.826 9.94356 290.244 2.68726C290.922 2.52561 291.616 2.33035 292.312 2.13439C294.074 1.63816 295.852 1.13747 297.438 1.1672C299.668 1.20915 301.877 0.962249 304.087 0.715191C307.311 0.354799 310.538 -0.00591185 313.841 0.52889C315.192 0.746977 316.576 0.583867 317.99 0.417351L317.99 0.417276C319.677 0.218538 321.405 0.0149794 323.167 0.449121C329.9 2.10291 336.748 2.03082 343.606 1.95864L343.606 1.95859C345.69 1.93668 347.775 1.91479 349.858 1.94127C363.642 2.11646 377.689 2.31337 390.563 7.61135C413.68 17.1247 435.861 28.6552 454.292 45.8991C473.366 63.7437 486.405 85.2202 492.166 111.109C492.576 112.953 493.007 114.791 493.437 116.625L493.438 116.626L493.438 116.628C495.607 125.881 497.761 135.064 497.237 144.719C496.796 150.694 495.957 156.633 494.726 162.498C494.295 164.77 493.97 167.057 493.644 169.343L493.644 169.344C492.96 174.152 492.276 178.961 490.612 183.646C487.215 193.212 483.759 202.695 479.452 211.923C474.927 221.611 476.879 231.463 480.073 241.284C481.465 245.564 483.023 249.787 484.581 254.011L484.581 254.011C487.439 261.762 490.298 269.513 492.132 277.618C500.059 312.634 495.798 345.957 479.842 378.229C474.048 389.949 467.449 401.169 460.85 412.389C458.277 416.764 455.704 421.139 453.179 425.543C449.138 432.591 444.829 439.493 440.521 446.392L440.521 446.392L440.521 446.393L440.521 446.393C435.822 453.919 431.124 461.443 426.778 469.152C407.951 502.53 377.376 519.757 343.085 532.137C327.862 537.632 311.888 540.047 295.83 541.982C293.115 542.31 290.402 542.655 287.69 543C272.884 544.883 258.102 546.763 243.07 545.756C211.084 543.607 181.76 534.366 156.279 514.319C144.008 504.666 131.748 494.995 121.703 482.963C111.724 471.28 103.908 457.913 98.6198 443.487C95.3597 434.371 92.7509 425.063 90.1425 415.756L90.1424 415.756L90.1423 415.756L90.1422 415.755L90.1421 415.755L90.142 415.754L90.1419 415.754L90.1418 415.754L90.1417 415.753L90.1416 415.753L90.1415 415.753L90.1414 415.752L90.1413 415.752L90.1412 415.752L90.1411 415.751L90.141 415.751L90.1409 415.75L90.1408 415.75L90.1407 415.75L90.1406 415.749L90.1405 415.749L90.1404 415.749L90.1403 415.748L90.1402 415.748L90.1401 415.748L90.14 415.747C87.6808 406.973 85.222 398.2 82.2176 389.591C81.0141 386.206 79.5142 382.934 77.7355 379.813C76.0121 376.742 74.4471 373.581 72.8824 370.42C70.2318 365.067 67.5822 359.715 64.1651 354.804C60.9527 350.188 57.613 345.66 54.2733 341.132L54.2729 341.132L54.2725 341.131L54.272 341.13L54.2716 341.13L54.2712 341.129L54.2707 341.129L54.2703 341.128L54.2699 341.127L54.2694 341.127L54.269 341.126L54.2686 341.126L54.2681 341.125L54.2677 341.124L54.2672 341.124L54.2668 341.123L54.2664 341.123L54.2659 341.122L54.2655 341.121L54.2651 341.121L54.2646 341.12L54.2642 341.12L54.2638 341.119L54.2633 341.118L54.2629 341.118L54.2625 341.117C50.7711 336.384 47.2799 331.65 43.9338 326.817C34.0206 312.302 25.6626 296.784 18.9977 280.519C12.6387 265.241 7.56956 249.457 3.84311 233.332C1.53468 223.728 0.409327 213.876 0.492087 203.996C0.510215 202.843 0.41494 201.651 0.318557 200.445L0.318443 200.444L0.318382 200.443L0.318364 200.443L0.318347 200.442L0.318329 200.442L0.318312 200.441L0.318295 200.441L0.318277 200.441L0.31826 200.44L0.318242 200.44L0.318225 200.439L0.318208 200.439L0.31819 200.439L0.318173 200.438L0.318155 200.438L0.318138 200.437L0.318121 200.437L0.318103 200.437L0.318086 200.436L0.318068 200.436L0.318051 200.435C0.0269494 196.791 -0.274229 193.02 2.49199 189.815C2.9979 175.582 9.99212 164.083 16.9829 152.589C18.5021 150.092 20.0212 147.594 21.4735 145.069C23.8172 140.994 26.7012 137.302 29.5822 133.614L29.5828 133.613L29.5834 133.613L29.5841 133.612L29.5847 133.611L29.5853 133.61L29.5859 133.61L29.5866 133.609L29.5872 133.608L29.5878 133.607L29.5884 133.607L29.5891 133.606C31.0896 131.685 32.5893 129.765 34.0111 127.792C36.3079 124.607 39.275 122.423 42.2282 120.25C43.6263 119.221 45.0212 118.195 46.3404 117.065C55.9656 108.813 66.5712 101.856 77.1681 94.9047C78.896 93.7712 80.6237 92.6379 82.3469 91.4991C98.4856 80.8287 115.175 71.0392 131.937 61.2673ZM365.27 118.242L365.269 118.244C358.734 130.186 352.133 142.247 347.491 155.991C358.184 141.405 371.072 115.054 370.531 108.524C368.809 111.775 367.043 115.003 365.271 118.24L365.27 118.242ZM352.021 190.28L350.246 189.547C351.435 186.612 352.581 183.659 353.728 180.706C357.727 170.403 361.727 160.097 367.536 150.555C363.659 164.27 357.878 177.19 352.096 190.112L352.021 190.28ZM428.825 302.442C427.615 308.805 425.84 315.031 424.067 321.252C421.827 329.11 419.589 336.962 418.494 345.073C424.446 331.586 427.944 317.15 428.825 302.442ZM446.234 191.239C443.961 185.108 447.301 165.229 451.281 161.427C450.661 164.872 450.225 168.349 449.784 171.858C448.987 178.218 448.176 184.681 446.234 191.239ZM282.633 303.813C288.825 297.85 299.992 277.694 300.735 271.112L282.633 303.813ZM223.114 529.43C213.928 525.798 204.334 523.293 194.542 521.97C203.59 526.005 213.243 528.525 223.114 529.43ZM429.819 375.389C430.384 374.09 430.964 372.795 431.544 371.5C435.224 363.287 438.903 355.074 438.652 345.678C436.96 351.684 435.152 357.654 433.345 363.626L433.344 363.626L433.344 363.627L433.344 363.627L433.344 363.627L433.344 363.628L433.344 363.628L433.344 363.629L433.344 363.629L433.343 363.63L433.343 363.63L433.343 363.63L433.343 363.631L433.343 363.631L433.343 363.632L433.343 363.632L433.343 363.633L433.342 363.633L433.342 363.633L433.342 363.634L433.341 363.639C432.156 367.551 430.972 371.465 429.819 375.389ZM369.762 164.933C370.492 163.302 371.221 161.671 371.939 160.036C369.385 170.538 364.931 180.325 360.246 190.023C362.445 181.293 366.104 173.113 369.762 164.933ZM418.056 473.668C414.543 478.594 410.694 483.273 406.538 487.672C403.684 490.658 400.68 493.503 397.676 496.347L397.676 496.347C396.364 497.589 395.053 498.831 393.754 500.085C404.607 493.242 415.515 481.316 418.056 473.668ZM401.754 390.442C401.955 395.208 392.573 412.912 386.082 420.03C387.128 417.992 388.236 415.977 389.346 413.957C390.911 411.111 392.482 408.254 393.892 405.306C395.513 401.91 397.32 398.6 399.202 395.153C400.041 393.617 400.895 392.053 401.754 390.442ZM341.936 128.111L341.064 127.618C336.817 132.113 334.411 137.647 332.005 143.181C331.592 144.132 331.179 145.082 330.756 146.027L331.595 146.499L341.936 128.111ZM258.171 322.692L245.295 345.307C248.264 337.112 252.32 329.35 257.355 322.231L257.609 322.375L257.809 322.488C257.93 322.556 258.051 322.624 258.171 322.692ZM243.258 318.409C239.71 320.968 232.159 335.047 231.456 339.495L243.258 318.409ZM369.902 189.321L368.843 188.865L376.476 169.732C375.281 176.633 372.646 182.991 369.902 189.321ZM429.382 212.699L429.383 212.695L429.384 212.701L429.382 212.699ZM431.496 193.556C429.2 199.661 428.474 206.241 429.383 212.695L431.496 193.556ZM474.643 149.195L473.049 129.626L473.05 129.629C475.056 135.945 475.601 142.635 474.643 149.195ZM273.833 426.557L274.714 427.261L284.705 414.69L283.954 414.092C282.668 416.015 281.064 417.684 279.459 419.353C277.339 421.558 275.219 423.764 273.832 426.556L273.833 426.557ZM224.66 311.095L224.662 311.093L224.661 311.092L224.66 311.095ZM217.396 322.735C218.802 318.309 221.3 314.306 224.66 311.095C224.375 311.707 224.097 312.326 223.82 312.945C222.221 316.512 220.605 320.116 217.396 322.735ZM483.198 168.154C485.062 164.915 485.983 161.22 485.857 157.488C485.858 157.384 485.866 157.274 485.875 157.165C485.914 156.662 485.954 156.145 485.248 156.009C484.388 155.842 484.205 156.545 484.155 157.139C483.885 159.992 483.644 162.848 483.404 165.702L483.404 165.704L483.404 165.707C483.335 166.523 483.267 167.338 483.198 168.153L483.198 168.154ZM456.231 351.015L456.232 351.013L456.232 351.011L456.231 351.015ZM456.231 351.015C456.085 351.468 455.936 351.921 455.788 352.373C454.498 356.301 453.218 360.2 453.138 364.35C455.824 360.267 456.101 355.632 456.231 351.015ZM464.968 153.343C466.451 148.404 466.19 141.729 464.715 138.94L464.968 153.343ZM45.1422 147.762L45.1348 147.769L45.1395 147.767L45.1422 147.762ZM45.1422 147.762L55.6306 137.92C51.322 140.212 47.7015 143.609 45.1422 147.762ZM359.561 140.063C356.892 143.692 354.795 147.708 353.344 151.971C355.959 148.309 358.052 144.301 359.561 140.063ZM131.056 475.719C131.349 476.534 131.637 477.338 132.118 478.006L132.104 477.996C129.984 476.432 127.859 474.863 127.516 471.65C129.842 472.331 130.457 474.048 131.056 475.719ZM293.789 342.455C291.252 345.263 289.254 348.513 287.894 352.043C290.414 349.222 292.41 345.975 293.789 342.455ZM129.358 65.9994L129.448 66.1618L119.575 71.6341L119.485 71.4717L129.358 65.9994Z" fill="#FBB65F"/>
</svg>